<svg width="863" height="436" viewBox="0 0 863 436" fill="none" xmlns="http://www.w3.org/2000/svg">
<path d="M353.004 385.789C334.102 402.657 311.97 412.795 288.491 420.301C261.377 428.969 233.454 432.992 205.093 434.634C175.713 436.335 146.491 434.751 117.316 431.369C115.173 431.121 112.994 431.101 110.832 431.1C75.9997 431.084 41.1675 431.089 6.33539 431.089C4.52588 431.089 2.71643 431.089 0.367918 431.089C0.272947 428.962 0.126096 427.205 0.125852 425.448C0.109983 326.952 -0.23102 228.453 0.281187 129.959C0.465208 94.5678 11.6722 62.8379 38.1295 37.8986C54.8743 22.1146 75.1096 12.7318 97.0687 6.64823C117.991 0.851963 139.324 -0.490017 160.912 0.143406C187.447 0.922032 213.755 3.5745 239.641 9.51499C268.266 16.0838 295.435 26.0785 318.759 44.6825C350.697 70.1584 361.891 112.672 345.738 147.81C336.442 168.032 320.555 181.84 301.58 192.548C286.264 201.191 269.871 207.075 252.902 211.479C250.519 212.098 248.15 212.776 245.754 213.432C261.165 216.817 276.505 219.726 291.594 223.61C313.856 229.34 334.62 238.508 352.87 252.821C394.261 285.281 394.012 342.364 362.069 376.684C359.233 379.731 356.203 382.595 353.004 385.789ZM171.867 208.3C176.004 207.052 180.246 206.074 184.259 204.509C200.488 198.179 213.355 188.203 218.312 170.658C221.932 157.844 220.336 145.027 215.344 132.965C198.747 92.8616 170.983 63.3939 130.636 46.5623C110.417 38.1276 89.4486 34.4814 67.6735 39.5873C49.8209 43.7733 40.1351 59.0169 44.9576 75.474C47.5839 84.4366 53.4164 91.3994 61.02 96.5408C69.9682 102.591 79.2801 108.114 88.5309 113.705C105.097 123.718 120.426 134.907 129.254 152.992C136.011 166.832 137.843 181.57 137.852 196.675C137.89 254.174 137.845 311.673 137.955 369.172C137.959 371.45 138.549 374.391 140.02 375.892C148.057 384.091 155.93 392.589 164.848 399.755C179.766 411.743 196.36 420.834 216.39 419.16C241.789 417.036 253.534 406.18 258.776 384.083C261.902 370.902 261.588 357.611 259.255 344.385C253.551 312.056 237.98 284.715 215.851 260.986C200.499 244.526 182.714 231.605 160.071 226.941C155.402 225.979 150.617 225.576 145.918 224.92C145.918 220.334 145.918 215.929 145.918 211.847C154.556 210.682 162.799 209.57 171.867 208.3Z" fill="#1DA0F1"/>
<path d="M519.548 21.5706C514.163 19.8994 509.12 18.3795 503.686 16.7415C503.686 12.1821 503.686 7.09296 503.686 1.11536C512.938 1.5954 522.043 1.80414 531.099 2.58502C563.642 5.39148 594.643 13.8055 623.243 29.7775C666.684 54.0374 697.917 89.6052 714.346 136.373C727.878 174.894 738.389 214.494 749.706 253.769C759.739 288.586 768.406 323.841 782.95 357.166C786.16 364.521 790.405 371.848 795.745 377.77C810.104 393.693 830.442 394.556 847.083 380.929C848.497 379.771 849.89 378.585 850.935 377.711C854.747 381.167 858.487 384.558 862.409 388.114C844.579 412.2 821.012 426.662 792.105 432.412C736.918 443.39 694.21 422.091 659.755 380.371C644.778 362.237 633.971 341.652 626.123 319.518C625.272 317.118 624.534 315.604 621.437 315.618C592.278 315.75 563.117 315.698 533.957 315.711C533.304 315.711 532.65 315.857 531.217 316.029C544.554 358.228 564.1 396.708 593.406 430.732C531.187 430.732 469.663 430.732 406.609 430.732C408.527 415.162 409.577 399.87 412.4 384.913C422.938 329.085 445.65 277.78 472.224 228.028C496.282 182.987 523.921 140.29 556.678 101.024C558.725 98.5704 559.255 96.4549 558.03 93.3802C551.032 75.8082 544.605 57.9987 537.194 40.606C533.779 32.5909 527.589 26.2521 519.548 21.5706ZM549.264 300.691C572.497 300.691 595.729 300.691 619.023 300.691C601.07 238.837 583.306 177.633 565.471 116.188C548.649 131.029 527.405 170.52 522.048 197.9C515.278 232.5 518.426 266.676 527.295 300.691C534.62 300.691 541.442 300.691 549.264 300.691Z" fill="#1DA0F1"/>
</svg>
